<svg xmlns="http://www.w3.org/2000/svg" width="1440" height="900" viewBox="0 0 1440 900" role="img" aria-label="Mechanical Probability dark preview">
  <defs>
    <linearGradient id="metal" x1="0" y1="0" x2="1" y2="1"><stop stop-color="#292832"/><stop offset=".55" stop-color="#19181e"/><stop offset="1" stop-color="#24232b"/></linearGradient>
    <linearGradient id="ceramic" x1="0" y1="0" x2="0" y2="1"><stop stop-color="#f7f4ed"/><stop offset="1" stop-color="#ddd9d0"/></linearGradient>
    <filter id="shadow"><feDropShadow dx="0" dy="24" stdDeviation="28" flood-color="#000" flood-opacity=".5"/></filter>
    <style>.ui{font-family:Arial,sans-serif}.mono{font-family:Consolas,monospace}.display{font-family:Arial,sans-serif;font-weight:900;letter-spacing:-4px}.label{font-size:11px;letter-spacing:1.3px}.muted{fill:#aaa5ad}</style>
  </defs>
  <rect width="1440" height="900" fill="#0b0a0c"/>
  <circle cx="1190" cy="110" r="280" fill="#d28457" opacity=".07"/>
  <g transform="translate(58 26)">
    <rect x="0" y="0" width="25" height="31" rx="3" fill="#24232b" stroke="#5a5660"/><rect x="13" y="10" width="26" height="31" rx="3" fill="#ece9e1" stroke="#aaa5ad"/><path d="M6 20h40" stroke="#d28457" stroke-width="3"/>
    <text x="58" y="27" class="ui" fill="#f0ede7" font-size="16" font-weight="800">Polymarket UI Kit</text>
    <g class="mono label muted" transform="translate(930 22)"><text>COMPONENTS</text><text x="112">LAB</text><text x="172">STUDIO</text><text x="252">GITHUB</text></g>
    <rect x="1260" y="-3" width="60" height="34" fill="#ece9e1"/><text x="1274" y="19" class="mono" fill="#1c1a19" font-size="10">DARK</text>
    <path d="M0 55H1324" stroke="#34313a"/>
  </g>
  <g transform="translate(58 214)">
    <circle cx="5" cy="5" r="5" fill="#55cfb3"/><text x="18" y="10" class="mono label" fill="#d28457">CIVIC FORECAST / CALIBRATED POLITICS EDITION</text>
    <text y="98" class="display" fill="#f0ede7" font-size="76">Make</text><text y="173" class="display" fill="#f0ede7" font-size="76">probability</text><text y="248" class="display" fill="#f0ede7" font-size="76">feel credible.</text>
    <text y="298" class="ui muted" font-size="18">An open-source React instrument for sourced markets,</text><text y="326" class="ui muted" font-size="18">public data, and distribution-ready interfaces.</text>
    <rect y="360" width="150" height="50" rx="4" fill="url(#ceramic)"/><text x="22" y="391" class="mono" fill="#1c1a19" font-size="12" font-weight="700">TRY STUDIO →</text>
    <text x="180" y="391" class="mono muted" font-size="11">VIEW ON GITHUB ↗</text>
  </g>
  <g transform="translate(650 148)" filter="url(#shadow)">
    <rect x="250" y="-70" width="270" height="255" rx="12" fill="#24232b" stroke="#494650"/><rect x="350" y="-35" width="270" height="255" rx="12" fill="url(#ceramic)" stroke="#aaa5ad"/><path d="M270 45h390" stroke="#d28457" stroke-width="8"/>
    <rect x="0" y="155" width="720" height="545" rx="14" fill="url(#metal)" stroke="#4b4852"/>
    <circle cx="16" cy="171" r="4" fill="#77737c"/><circle cx="704" cy="171" r="4" fill="#77737c"/>
    <circle cx="28" cy="195" r="5" fill="#55cfb3"/><text x="42" y="199" class="mono label muted">FALLBACK MARKET FIXTURE</text><text x="635" y="199" class="mono label muted">POLITICS</text>
    <rect x="26" y="220" width="668" height="112" rx="6" fill="url(#ceramic)"/>
    <text x="48" y="249" class="mono" fill="#a75c3a" font-size="11">MARKET / POLITICS</text><text x="48" y="288" class="ui" fill="#1c1a19" font-size="32" font-weight="900">Who will win the 2028 US</text><text x="48" y="322" class="ui" fill="#1c1a19" font-size="32" font-weight="900">presidential election?</text>
    <rect x="26" y="350" width="668" height="250" rx="7" fill="#0f0e12" stroke="#3d3a43"/>
    <path d="M50 540L160 530 265 545 370 520 480 500 585 493 670 486" fill="none" stroke="#d28457" stroke-width="4"/>
    <path d="M50 418H670M50 480H670" stroke="#34313a" stroke-dasharray="5 8"/>
    <rect x="50" y="560" width="110" height="24" fill="#201f27" stroke="#45424c"/><circle cx="64" cy="572" r="4" fill="#d28457"/><text x="76" y="576" class="mono label muted">CANDIDATE A</text>
    <rect x="26" y="616" width="668" height="60" rx="6" fill="#0f0e12" stroke="#3d3a43"/><circle cx="48" cy="646" r="5" fill="#55cfb3"/><text x="62" y="651" class="ui" fill="#f0ede7" font-size="15" font-weight="700">Sample evidence context</text><text x="630" y="651" class="mono muted" font-size="11">4 SOURCES</text>
  </g>
  <g transform="translate(58 850)" class="mono label"><text fill="#f0ede7">21 COMPONENTS</text><text x="340" fill="#f0ede7">PUBLIC DATA</text><text x="650" fill="#f0ede7">PNG + SVG</text><text x="970" fill="#f0ede7">7 REGISTRY ITEMS</text></g>
</svg>
