<svg xmlns="http://www.w3.org/2000/svg" width="1440" height="900" viewBox="0 0 1440 900" role="img" aria-label="Mechanical Probability light preview">
  <defs>
    <linearGradient id="metal" x1="0" y1="0" x2="1" y2="1"><stop stop-color="#faf7f1"/><stop offset=".55" stop-color="#e2ddd5"/><stop offset="1" stop-color="#f1ede6"/></linearGradient>
    <linearGradient id="ceramic" x1="0" y1="0" x2="0" y2="1"><stop stop-color="#fffdf8"/><stop offset="1" stop-color="#ebe5dc"/></linearGradient>
    <filter id="shadow"><feDropShadow dx="0" dy="24" stdDeviation="28" flood-color="#554d45" flood-opacity=".18"/></filter>
    <style>.ui{font-family:Arial,sans-serif}.mono{font-family:Consolas,monospace}.display{font-family:Arial,sans-serif;font-weight:900;letter-spacing:-4px}.label{font-size:11px;letter-spacing:1.3px}.muted{fill:#6d655e}</style>
  </defs>
  <rect width="1440" height="900" fill="#efede7"/>
  <circle cx="1190" cy="110" r="280" fill="#a75c3a" opacity=".07"/>
  <g transform="translate(58 26)">
    <rect width="25" height="31" rx="3" fill="#d6d0c7" stroke="#8d857c"/><rect x="13" y="10" width="26" height="31" rx="3" fill="#faf7f1" stroke="#aca49a"/><path d="M6 20h40" stroke="#a75c3a" stroke-width="3"/>
    <text x="58" y="27" class="ui" fill="#211e1b" font-size="16" font-weight="800">Polymarket UI Kit</text>
    <g class="mono label muted" transform="translate(930 22)"><text>COMPONENTS</text><text x="112">LAB</text><text x="172">STUDIO</text><text x="252">GITHUB</text></g>
    <rect x="1260" y="-3" width="60" height="34" fill="#211e1b"/><text x="1271" y="19" class="mono" fill="#faf7f1" font-size="10">LIGHT</text><path d="M0 55H1324" stroke="#c4bdb4"/>
  </g>
  <g transform="translate(58 214)">
    <circle cx="5" cy="5" r="5" fill="#188c77"/><text x="18" y="10" class="mono label" fill="#a75c3a">CIVIC FORECAST / CALIBRATED POLITICS EDITION</text>
    <text y="98" class="display" fill="#211e1b" font-size="76">Make</text><text y="173" class="display" fill="#211e1b" font-size="76">probability</text><text y="248" class="display" fill="#211e1b" font-size="76">feel credible.</text>
    <text y="298" class="ui muted" font-size="18">An open-source React instrument for sourced markets,</text><text y="326" class="ui muted" font-size="18">public data, and distribution-ready interfaces.</text>
    <rect y="360" width="150" height="50" rx="4" fill="#211e1b"/><text x="22" y="391" class="mono" fill="#faf7f1" font-size="12" font-weight="700">TRY STUDIO →</text><text x="180" y="391" class="mono muted" font-size="11">VIEW ON GITHUB ↗</text>
  </g>
  <g transform="translate(650 148)" filter="url(#shadow)">
    <rect x="250" y="-70" width="270" height="255" rx="12" fill="#d6d0c7" stroke="#aca49a"/><rect x="350" y="-35" width="270" height="255" rx="12" fill="url(#ceramic)" stroke="#aca49a"/><path d="M270 45h390" stroke="#a75c3a" stroke-width="8"/>
    <rect x="0" y="155" width="720" height="545" rx="14" fill="url(#metal)" stroke="#aca49a"/><circle cx="16" cy="171" r="4" fill="#8e877f"/><circle cx="704" cy="171" r="4" fill="#8e877f"/>
    <circle cx="28" cy="195" r="5" fill="#188c77"/><text x="42" y="199" class="mono label muted">FALLBACK MARKET FIXTURE</text><text x="635" y="199" class="mono label muted">POLITICS</text>
    <rect x="26" y="220" width="668" height="112" rx="6" fill="#faf7f1" stroke="#bdb5ab"/><text x="48" y="249" class="mono" fill="#a75c3a" font-size="11">MARKET / POLITICS</text><text x="48" y="288" class="ui" fill="#211e1b" font-size="32" font-weight="900">Who will win the 2028 US</text><text x="48" y="322" class="ui" fill="#211e1b" font-size="32" font-weight="900">presidential election?</text>
    <rect x="26" y="350" width="668" height="250" rx="7" fill="#f7f3ed" stroke="#bdb5ab"/><path d="M50 540L160 530 265 545 370 520 480 500 585 493 670 486" fill="none" stroke="#a75c3a" stroke-width="4"/><path d="M50 418H670M50 480H670" stroke="#d2cbc2" stroke-dasharray="5 8"/>
    <rect x="50" y="560" width="110" height="24" fill="#e5e0d8" stroke="#bdb5ab"/><circle cx="64" cy="572" r="4" fill="#a75c3a"/><text x="76" y="576" class="mono label muted">CANDIDATE A</text>
    <rect x="26" y="616" width="668" height="60" rx="6" fill="#f7f3ed" stroke="#bdb5ab"/><circle cx="48" cy="646" r="5" fill="#188c77"/><text x="62" y="651" class="ui" fill="#211e1b" font-size="15" font-weight="700">Sample evidence context</text><text x="630" y="651" class="mono muted" font-size="11">4 SOURCES</text>
  </g>
  <g transform="translate(58 850)" class="mono label"><text fill="#211e1b">21 COMPONENTS</text><text x="340" fill="#211e1b">PUBLIC DATA</text><text x="650" fill="#211e1b">PNG + SVG</text><text x="970" fill="#211e1b">7 REGISTRY ITEMS</text></g>
</svg>
